# xmcd
# 
# Track frame offsets:
#     150
#     20354
#     44107
#     72881
#     97445
#     128991
#     151891
#     174761
#     197431
#     218477
#     230404
#     260167
#     288626
# 
# Disc length: 3862
# 
# Revision: 2
# Processed by: cddbd v1.5.2PL0 Copyright (c) Steve Scherf et al.
# Submitted via: fre:ac v1.0.27
# 
DISCID=be0f140d
DTITLE=Roy Rogers and the Delta Rhythm Kings - Live! At the Sierra Nevada Brewery Big Room
DYEAR=2004
DGENRE=Blues Rock
TTITLE0=Ever Since I Lost You
TTITLE1=Down Home Girl
TTITLE2=Mellow Apples
TTITLE3=Built for Comfort
TTITLE4=Terraplane Blues
TTITLE5=I'm a Stranger Here
TTITLE6=Gertie Ruth
TTITLE7=Down in Mississippi
TTITLE8=Vida's Place
TTITLE9=Duck Walk
TTITLE10=Shake Your Moneymaker
TTITLE11=For the Children
TTITLE12=Enhanced CD software
EXTD=
EXTT0=
EXTT1=
EXTT2=
EXTT3=
EXTT4=
EXTT5=
EXTT6=
EXTT7=
EXTT8=
EXTT9=
EXTT10=
EXTT11=
EXTT12=
PLAYORDER=
